<svg xmlns="http://www.w3.org/2000/svg" width="375" viewBox="0 0 375 375" height="375" version="1.0"><g fill="#64FFDA"><g><g><path d="M 21.960938 -5.964844 C 21.960938 -6.574219 21.734375 -6.953125 21.125 -6.953125 L 20.898438 -6.953125 C 20.367188 -6.953125 19.71875 -6.460938 19.1875 -6.042969 L 12.652344 -0.53125 L 9.917969 -0.53125 L 9.917969 -25.609375 C 9.917969 -26.214844 9.6875 -26.597656 9.082031 -26.597656 L 4.253906 -26.597656 C 3.648438 -26.597656 3.417969 -26.214844 3.417969 -25.609375 L 3.417969 -0.988281 C 3.417969 -0.378906 3.648438 0 4.253906 0 L 21.125 0 C 21.734375 0 21.960938 -0.378906 21.960938 -0.988281 Z M 21.960938 -5.964844" transform="translate(84.656 193.5)"/></g></g></g><g fill="#64FFDA"><g><g><path d="M 3.875 -20.972656 C 3.265625 -20.972656 3.039062 -20.59375 3.039062 -19.984375 L 3.039062 -0.988281 C 3.039062 -0.378906 3.265625 0 3.875 0 L 18.882812 0 C 19.414062 0 19.71875 -0.378906 19.949219 -0.988281 L 22.304688 -6.878906 C 22.378906 -7.066406 22.453125 -7.257812 22.265625 -7.410156 L 21.808594 -7.75 C 21.734375 -7.828125 21.65625 -7.828125 21.582031 -7.828125 C 21.46875 -7.828125 21.351562 -7.75 21.203125 -7.675781 L 11.019531 -0.53125 L 9.535156 -0.53125 L 9.535156 -10.449219 L 17.667969 -10.257812 L 17.667969 -11.171875 L 9.535156 -10.980469 L 9.535156 -20.441406 L 11.019531 -20.441406 L 17.554688 -14.933594 C 18.085938 -14.515625 18.730469 -14.019531 19.261719 -14.019531 L 19.492188 -14.019531 C 20.097656 -14.019531 20.328125 -14.398438 20.328125 -15.007812 L 20.328125 -19.984375 C 20.328125 -20.59375 20.097656 -20.972656 19.492188 -20.972656 Z M 3.875 -20.972656" transform="translate(107.376 193.5)"/></g></g></g><g fill="#64FFDA"><g><g><path d="M 3.039062 -0.988281 C 3.039062 -0.378906 3.265625 0 3.875 0 L 8.699219 0 C 9.308594 0 9.535156 -0.378906 9.535156 -0.988281 L 9.535156 -19.984375 C 9.535156 -20.59375 9.308594 -20.972656 8.699219 -20.972656 L 3.875 -20.972656 C 3.265625 -20.972656 3.039062 -20.59375 3.039062 -19.984375 Z M 23.480469 -19.984375 C 23.9375 -20.441406 23.746094 -20.972656 22.988281 -20.972656 L 15.386719 -20.972656 C 14.742188 -20.972656 14.515625 -20.480469 14.894531 -19.984375 L 18.730469 -14.933594 C 15.085938 -10.5625 14.097656 -9.800781 10.335938 -9.800781 L 10.335938 -9.308594 L 16.71875 -0.988281 C 17.171875 -0.457031 17.742188 0 18.425781 0 L 24.050781 0 C 24.695312 0 24.925781 -0.492188 24.542969 -0.988281 L 16.488281 -11.511719 Z M 23.480469 -19.984375" transform="translate(130.36 193.5)"/></g></g></g><g fill="#64FFDA"><g><g><path d="M 13.5625 -19.984375 C 13.335938 -20.515625 12.84375 -20.972656 12.195312 -20.972656 L 10.257812 -20.972656 C 9.726562 -20.972656 9.195312 -20.515625 8.96875 -19.984375 L 0.457031 -0.988281 C 0.265625 -0.492188 0.457031 0 1.0625 0 L 6.535156 0 C 7.332031 0 7.636719 -0.417969 7.371094 -0.988281 L 4.558594 -7.257812 L 12.121094 -7.257812 L 14.933594 -0.988281 C 15.199219 -0.417969 15.617188 0 16.300781 0 L 21.46875 0 C 22.074219 0 22.265625 -0.492188 22.074219 -0.988281 Z M 11.890625 -7.789062 L 4.140625 -7.789062 L 7.980469 -16.566406 Z M 11.890625 -7.789062" transform="translate(155.854 193.5)"/></g></g></g><g fill="#64FFDA"><g><g><path d="M 1.746094 -20.972656 C 1.558594 -20.972656 1.40625 -20.859375 1.40625 -20.707031 L 1.40625 -20.632812 C 1.40625 -20.480469 1.445312 -20.289062 1.671875 -19.984375 L 3.039062 -18.199219 L 3.039062 -0.988281 C 3.039062 -0.378906 3.265625 0 3.875 0 L 9.308594 0 C 9.5 0 9.574219 -0.113281 9.574219 -0.265625 L 9.574219 -0.457031 C 9.574219 -0.722656 9.535156 -0.875 9.308594 -1.214844 L 3.570312 -8.738281 L 3.570312 -17.476562 L 16.1875 -0.988281 C 16.71875 -0.34375 17.210938 0 17.707031 0 L 19.148438 0 C 19.757812 0 19.984375 -0.378906 19.984375 -0.988281 L 19.984375 -19.984375 C 19.984375 -20.59375 19.757812 -20.972656 19.148438 -20.972656 L 14.816406 -20.972656 C 14.628906 -20.972656 14.550781 -20.859375 14.550781 -20.707031 L 14.550781 -20.515625 C 14.550781 -20.25 14.550781 -20.0625 14.816406 -19.757812 L 19.453125 -13.679688 L 19.453125 -6.878906 L 19.378906 -6.878906 L 9.195312 -20.175781 C 8.699219 -20.746094 8.359375 -20.972656 7.789062 -20.972656 Z M 1.746094 -20.972656" transform="translate(178.383 193.5)"/></g></g></g><g fill="#64FFDA"><g><g><path d="M 3.417969 -0.988281 C 3.417969 -0.378906 3.648438 0 4.253906 0 L 14.515625 0 C 23.746094 0 28.761719 -4.101562 28.761719 -13.335938 C 28.761719 -22.570312 23.746094 -26.597656 14.515625 -26.597656 L 4.253906 -26.597656 C 3.648438 -26.597656 3.417969 -26.214844 3.417969 -25.609375 Z M 10.296875 -26.066406 L 13.296875 -26.066406 C 17.707031 -26.066406 21.542969 -19.605469 21.542969 -13.335938 C 21.542969 -7.066406 17.707031 -0.53125 13.296875 -0.53125 L 10.296875 -0.53125 Z M 10.296875 -26.066406" transform="translate(212.804 193.5)"/></g></g></g><g fill="#64FFDA"><g><g><path d="M 13.5625 -19.984375 C 13.335938 -20.515625 12.84375 -20.972656 12.195312 -20.972656 L 10.257812 -20.972656 C 9.726562 -20.972656 9.195312 -20.515625 8.96875 -19.984375 L 0.457031 -0.988281 C 0.265625 -0.492188 0.457031 0 1.0625 0 L 6.535156 0 C 7.332031 0 7.636719 -0.417969 7.371094 -0.988281 L 4.558594 -7.257812 L 12.121094 -7.257812 L 14.933594 -0.988281 C 15.199219 -0.417969 15.617188 0 16.300781 0 L 21.46875 0 C 22.074219 0 22.265625 -0.492188 22.074219 -0.988281 Z M 11.890625 -7.789062 L 4.140625 -7.789062 L 7.980469 -16.566406 Z M 11.890625 -7.789062" transform="translate(243.464 193.5)"/></g></g></g><g fill="#64FFDA"><g><g><path d="M 23.101562 0 C 23.746094 0 23.9375 -0.53125 23.59375 -0.988281 L 19.226562 -6.726562 C 18.960938 -7.066406 18.503906 -7.066406 18.085938 -7.066406 C 14.363281 -7.066406 12.765625 -8.246094 11.777344 -9.421875 L 12.691406 -9.421875 C 18.617188 -9.421875 21.695312 -10.601562 21.695312 -15.386719 C 21.695312 -19.796875 18.617188 -20.972656 12.691406 -20.972656 L 3.875 -20.972656 C 3.265625 -20.972656 3.039062 -20.59375 3.039062 -19.984375 L 3.039062 -0.988281 C 3.039062 -0.378906 3.265625 0 3.875 0 L 8.699219 0 C 9.308594 0 9.535156 -0.378906 9.535156 -0.988281 L 9.535156 -9.421875 L 11.054688 -9.421875 L 16.871094 -0.988281 C 17.324219 -0.378906 17.933594 0 18.542969 0 Z M 11.4375 -20.441406 C 13.714844 -20.441406 15.160156 -20.136719 15.160156 -15.386719 C 15.160156 -10.636719 13.714844 -9.953125 11.4375 -9.953125 L 9.535156 -9.953125 L 9.535156 -20.441406 Z M 11.4375 -20.441406" transform="translate(265.993 193.5)"/></g></g></g></svg>